<svg xmlns="http://www.w3.org/2000/svg" xmlns:xlink="http://www.w3.org/1999/xlink" width="" zoomAndPan="magnify" viewBox="0 0 187.5 74.999997" height="" preserveAspectRatio="xMidYMid meet" version="1.0"><defs><g/></defs><g fill="#ff914d" fill-opacity="1"><g transform="translate(15.175565, 58.00375)"><g><path d="M 21.84375 -2.777344 C 23.570312 -2.585938 25.238281 -2.875 26.859375 -3.558594 C 28.476562 -4.246094 29.972656 -5.285156 31.390625 -6.59375 C 32.769531 -7.902344 34 -9.433594 35.164062 -11.199219 C 36.285156 -12.957031 37.226562 -14.859375 37.988281 -16.902344 C 38.714844 -18.898438 39.230469 -20.949219 39.542969 -23.015625 C 39.855469 -25.082031 39.929688 -27.117188 39.726562 -29.082031 C 39.492188 -31 38.988281 -32.761719 38.21875 -34.410156 C 37.410156 -36.015625 36.265625 -37.414062 34.746094 -38.523438 C 33.230469 -39.636719 31.355469 -40.378906 29.152344 -40.796875 C 26.917969 -41.167969 24.285156 -41.125 21.183594 -40.621094 L 21.34375 -40.640625 C 19.4375 -40.324219 17.523438 -39.722656 15.683594 -38.847656 C 13.804688 -37.964844 12.15625 -36.871094 10.707031 -35.472656 C 9.257812 -34.078125 8.117188 -32.476562 7.285156 -30.671875 C 6.453125 -28.863281 6.164062 -26.921875 6.433594 -24.765625 C 6.605469 -23.367188 7.097656 -22.332031 7.945312 -21.707031 C 8.757812 -21.039062 9.730469 -20.710938 10.820312 -20.765625 C 11.875 -20.773438 12.921875 -21.144531 13.972656 -21.84375 C 15.023438 -22.542969 15.828125 -23.574219 16.429688 -24.945312 C 15.699219 -24.9375 15.125 -24.988281 14.65625 -25.171875 C 14.152344 -25.3125 13.757812 -25.550781 13.480469 -25.839844 C 13.160156 -26.125 12.914062 -26.457031 12.785156 -26.847656 C 12.617188 -27.234375 12.523438 -27.667969 12.464844 -28.148438 C 12.414062 -28.546875 12.398438 -28.992188 12.421875 -29.480469 C 12.441406 -29.96875 12.507812 -30.425781 12.613281 -30.882812 C 12.71875 -31.34375 12.824219 -31.800781 12.933594 -32.222656 C 13.042969 -32.640625 13.199219 -33.023438 13.320312 -33.363281 C 13.640625 -34.375 14.21875 -35.300781 15.007812 -36.128906 C 15.796875 -36.953125 16.71875 -37.71875 17.777344 -38.335938 C 18.839844 -38.914062 19.964844 -39.335938 21.222656 -39.652344 C 22.480469 -39.972656 23.765625 -40.089844 25.074219 -40.007812 C 27.199219 -39.863281 29.023438 -39.238281 30.453125 -38.15625 C 31.886719 -37.078125 32.988281 -35.710938 33.792969 -34.109375 C 34.5625 -32.457031 35.070312 -30.65625 35.277344 -28.652344 C 35.484375 -26.652344 35.445312 -24.660156 35.164062 -22.675781 C 34.886719 -20.980469 34.433594 -19.382812 33.765625 -17.921875 C 33.097656 -16.417969 32.28125 -15.140625 31.28125 -14.042969 C 30.285156 -12.90625 29.136719 -12.035156 27.914062 -11.4375 C 26.695312 -10.800781 25.386719 -10.558594 24.070312 -10.679688 C 23.09375 -10.722656 22.085938 -11.003906 21.046875 -11.523438 C 20.015625 -12.003906 19.027344 -12.773438 18.050781 -13.789062 L 18.375 -14.4375 C 18.832031 -15.347656 19.320312 -16.296875 19.8125 -17.25 C 20.261719 -18.199219 20.75 -19.191406 21.234375 -20.183594 C 21.6875 -21.132812 22.175781 -22.085938 22.710938 -23.003906 C 23.246094 -23.921875 23.785156 -24.839844 24.402344 -25.726562 C 25.292969 -27.054688 26.273438 -28.3125 27.34375 -29.5 C 28.421875 -30.644531 29.738281 -31.78125 31.257812 -32.941406 C 30.085938 -32.59375 28.976562 -32.050781 27.96875 -31.359375 C 26.957031 -30.667969 25.96875 -29.816406 24.949219 -28.878906 C 23.933594 -27.902344 22.925781 -26.84375 22.007812 -25.757812 C 21.085938 -24.667969 20.171875 -23.542969 19.257812 -22.414062 C 18.34375 -21.25 17.425781 -20.160156 16.496094 -19.152344 C 15.566406 -18.148438 14.625 -17.21875 13.671875 -16.410156 C 12.679688 -15.558594 11.707031 -14.910156 10.707031 -14.464844 C 9.710938 -13.976562 8.648438 -13.722656 7.507812 -13.746094 C 6.621094 -13.714844 5.914062 -13.871094 5.382812 -14.210938 C 4.816406 -14.546875 4.355469 -14.976562 4.003906 -15.542969 C 3.304688 -16.59375 2.976562 -17.929688 3.09375 -19.609375 C 2.308594 -19.066406 1.621094 -18.410156 1.03125 -17.609375 C 0.398438 -16.800781 -0.0976562 -15.886719 -0.503906 -14.90625 C -0.941406 -13.878906 -1.222656 -12.867188 -1.414062 -11.789062 C -1.605469 -10.710938 -1.644531 -9.695312 -1.601562 -8.683594 C -1.546875 -7.597656 -1.382812 -6.601562 -1.023438 -5.671875 C -0.707031 -4.738281 -0.199219 -3.910156 0.492188 -3.226562 C 1.152344 -2.496094 1.945312 -1.984375 2.964844 -1.625 C 3.980469 -1.261719 5.175781 -1.125 6.539062 -1.253906 C 7.582031 -1.34375 8.550781 -1.703125 9.53125 -2.3125 C 10.46875 -2.914062 11.390625 -3.679688 12.28125 -4.679688 C 13.136719 -5.636719 13.929688 -6.75 14.746094 -8.027344 C 15.527344 -9.257812 16.292969 -10.609375 17.054688 -12.003906 C 16.671875 -10.496094 16.550781 -9.183594 16.683594 -8.105469 C 16.78125 -6.980469 17.054688 -6.082031 17.554688 -5.332031 C 18.015625 -4.539062 18.621094 -3.921875 19.359375 -3.527344 C 20.0625 -3.085938 20.90625 -2.824219 21.84375 -2.777344 Z M 21.84375 -2.777344 "/></g></g></g><g fill="#ff914d" fill-opacity="1"><g transform="translate(53.285784, 53.296815)"><g><path d="M 2.730469 -0.539062 C 3.71875 -0.417969 4.679688 -0.539062 5.648438 -0.902344 C 6.617188 -1.261719 7.570312 -1.746094 8.5 -2.429688 C 9.394531 -3.066406 10.234375 -3.820312 11.066406 -4.652344 C 11.894531 -5.484375 12.675781 -6.390625 13.367188 -7.371094 C 14.023438 -8.304688 14.632812 -9.269531 15.203125 -10.234375 C 15.734375 -11.191406 16.195312 -12.058594 16.574219 -12.917969 C 14.984375 -10.691406 13.480469 -9.085938 12.140625 -8.109375 C 10.800781 -7.132812 9.640625 -6.667969 8.703125 -6.710938 C 7.730469 -6.714844 7.101562 -7.203125 6.734375 -8.214844 C 6.371094 -9.183594 6.402344 -10.566406 6.832031 -12.324219 C 6.945312 -12.742188 7.054688 -13.160156 7.164062 -13.582031 C 7.28125 -13.960938 7.4375 -14.34375 7.589844 -14.726562 C 7.53125 -13.910156 7.71875 -13.363281 8.117188 -13.089844 C 8.476562 -12.808594 8.980469 -12.667969 9.582031 -12.742188 L 9.476562 -12.609375 C 10.605469 -12.667969 11.683594 -13.125 12.636719 -13.933594 C 13.597656 -14.699219 14.332031 -15.640625 14.929688 -16.730469 C 15.160156 -17.164062 15.371094 -17.757812 15.601562 -18.515625 C 15.832031 -19.273438 15.945312 -19.980469 15.9375 -20.707031 C 15.933594 -21.398438 15.742188 -21.980469 15.4375 -22.472656 C 15.097656 -22.914062 14.503906 -23.125 13.695312 -23.109375 C 12.332031 -22.980469 11.007812 -22.53125 9.796875 -21.816406 C 8.589844 -21.097656 7.4375 -20.226562 6.429688 -19.207031 C 5.382812 -18.148438 4.46875 -17.019531 3.644531 -15.824219 C 2.824219 -14.585938 2.191406 -13.453125 1.671875 -12.414062 C 0.917969 -10.941406 0.328125 -9.492188 -0.0625 -8.0625 C -0.496094 -6.632812 -0.621094 -5.359375 -0.441406 -4.246094 C -0.285156 -2.964844 0.113281 -2.042969 0.671875 -1.460938 C 1.230469 -0.882812 1.914062 -0.601562 2.730469 -0.539062 Z M 9.09375 -14.710938 C 8.574219 -14.648438 8.261719 -14.890625 8.160156 -15.367188 C 8.023438 -15.835938 8.269531 -16.476562 8.847656 -17.359375 C 9.625 -18.628906 10.445312 -19.542969 11.308594 -20.09375 C 12.136719 -20.601562 12.867188 -20.9375 13.457031 -21.089844 L 13.496094 -21.09375 C 14.375 -21.203125 14.738281 -20.882812 14.59375 -20.09375 C 14.484375 -19.675781 14.292969 -19.246094 14.027344 -18.769531 C 13.761719 -18.289062 13.417969 -17.800781 13.066406 -17.351562 C 12.367188 -16.453125 11.636719 -15.796875 10.917969 -15.382812 C 10.164062 -14.925781 9.582031 -14.691406 9.09375 -14.710938 Z M 9.09375 -14.710938 "/></g></g></g><g fill="#ff914d" fill-opacity="1"><g transform="translate(67.786603, 51.505841)"><g><path d="M 8.171875 -1.820312 C 9.339844 -2.53125 10.242188 -3.457031 10.90625 -4.632812 C 11.539062 -5.765625 12 -6.957031 12.328125 -8.214844 C 12.621094 -9.46875 12.871094 -10.714844 13.039062 -11.992188 C 13.207031 -13.273438 13.332031 -14.546875 13.414062 -15.851562 C 13.421875 -16.460938 13.464844 -17.078125 13.515625 -17.652344 C 13.527344 -18.21875 13.578125 -18.792969 13.628906 -19.367188 L 13.714844 -19.335938 C 14.050781 -19.582031 14.480469 -20.039062 15.050781 -20.679688 C 15.621094 -21.316406 16.136719 -22.070312 16.605469 -22.859375 C 16.90625 -23.382812 17.167969 -23.902344 17.386719 -24.414062 C 17.605469 -24.929688 17.753906 -25.394531 17.777344 -25.84375 C 17.808594 -26.253906 17.71875 -26.648438 17.519531 -26.945312 C 17.320312 -27.246094 16.964844 -27.488281 16.460938 -27.628906 C 16.046875 -27.699219 15.613281 -27.601562 15.164062 -27.304688 C 14.714844 -27.003906 14.3125 -26.632812 13.894531 -26.09375 C 13.433594 -25.550781 13.023438 -24.929688 12.621094 -24.234375 C 12.222656 -23.535156 11.855469 -22.878906 11.578125 -22.195312 C 11.257812 -21.507812 10.976562 -20.824219 10.769531 -20.191406 C 10.5625 -19.558594 10.464844 -19.058594 10.433594 -18.648438 C 9.914062 -18.261719 9.339844 -17.984375 8.753906 -17.792969 C 8.132812 -17.554688 7.546875 -17.398438 6.949219 -17.285156 C 6.355469 -17.171875 5.796875 -17.101562 5.226562 -17.113281 C 4.660156 -17.125 4.128906 -17.140625 3.636719 -17.199219 C 3.855469 -16.742188 4.214844 -16.460938 4.683594 -16.273438 C 5.152344 -16.089844 5.6875 -16.035156 6.328125 -16.074219 C 6.9375 -16.066406 7.574219 -16.1875 8.273438 -16.433594 C 8.9375 -16.636719 9.632812 -16.925781 10.359375 -17.261719 C 10.257812 -15.464844 10.082031 -13.941406 9.820312 -12.773438 C 9.558594 -11.605469 9.234375 -10.632812 8.835938 -9.894531 C 8.382812 -8.984375 7.8125 -8.347656 7.132812 -7.9375 C 6.453125 -7.53125 5.824219 -7.371094 5.25 -7.421875 C 4.640625 -7.429688 4.171875 -7.613281 3.835938 -8.019531 C 3.507812 -8.382812 3.476562 -8.949219 3.714844 -9.664062 C 3.882812 -10.253906 4.234375 -10.703125 4.679688 -11.042969 C 5.125 -11.382812 5.570312 -11.394531 5.976562 -11.039062 C 6.183594 -11.351562 6.296875 -11.730469 6.246094 -12.167969 C 6.199219 -12.527344 6.035156 -12.875 5.792969 -13.207031 C 5.511719 -13.496094 5.164062 -13.699219 4.734375 -13.886719 C 4.308594 -14.039062 3.820312 -14.058594 3.339844 -14 C 2.265625 -13.828125 1.394531 -13.355469 0.675781 -12.578125 C -0.0390625 -11.796875 -0.574219 -10.878906 -0.933594 -9.863281 C -1.296875 -8.84375 -1.40625 -7.777344 -1.347656 -6.648438 C -1.328125 -5.515625 -1.078125 -4.449219 -0.640625 -3.53125 C -0.199219 -2.613281 0.421875 -1.835938 1.300781 -1.296875 C 2.144531 -0.710938 3.1875 -0.476562 4.46875 -0.59375 C 5.71875 -0.664062 6.960938 -1.101562 8.171875 -1.820312 Z M 13.765625 -20.886719 C 13.851562 -21.503906 13.9375 -22.125 14.109375 -22.710938 C 14.277344 -23.300781 14.488281 -23.894531 14.78125 -24.5 L 14.789062 -24.417969 C 14.914062 -24.71875 15.082031 -25.023438 15.25 -25.289062 C 15.382812 -25.546875 15.554688 -25.769531 15.726562 -26.035156 C 16.007812 -26.394531 16.265625 -26.589844 16.464844 -26.613281 C 16.636719 -26.554688 16.695312 -26.398438 16.726562 -26.160156 C 16.703125 -25.992188 16.679688 -25.871094 16.699219 -25.710938 C 16.679688 -25.542969 16.660156 -25.378906 16.640625 -25.214844 C 16.523438 -24.835938 16.441406 -24.5 16.324219 -24.164062 C 16.203125 -23.824219 16.113281 -23.566406 16.046875 -23.4375 C 15.550781 -22.527344 14.804688 -21.664062 13.765625 -20.886719 Z M 13.765625 -20.886719 "/></g></g></g><g fill="#ff914d" fill-opacity="1"><g transform="translate(80.529697, 49.931962)"><g><path d="M 11.558594 -24.628906 C 11.984375 -24.476562 12.5625 -24.710938 13.21875 -25.320312 C 13.507812 -25.597656 13.828125 -25.964844 14.097656 -26.402344 C 14.371094 -26.839844 14.640625 -27.28125 14.859375 -27.792969 C 15.082031 -28.308594 15.265625 -28.777344 15.40625 -29.28125 C 15.507812 -29.78125 15.613281 -30.238281 15.636719 -30.6875 C 15.65625 -31.542969 15.429688 -32.042969 15.007812 -32.191406 C 14.542969 -32.339844 14.003906 -32.109375 13.347656 -31.5 C 12.699219 -30.851562 12.152344 -30.015625 11.671875 -28.980469 L 11.667969 -29.023438 C 11.40625 -28.503906 11.226562 -27.996094 11.125 -27.496094 C 10.984375 -26.992188 10.917969 -26.535156 10.921875 -26.171875 C 10.894531 -25.761719 10.9375 -25.402344 11.050781 -25.132812 C 11.164062 -24.863281 11.308594 -24.679688 11.558594 -24.628906 Z M 0.574219 -0.273438 C 1.242188 -0.113281 2.046875 -0.171875 3.066406 -0.460938 C 4.085938 -0.746094 5.148438 -1.324219 6.304688 -2.15625 C 7.425781 -2.945312 8.59375 -3.980469 9.730469 -5.296875 C 10.871094 -6.574219 11.96875 -8.171875 12.960938 -9.996094 C 12.675781 -9.679688 12.316406 -9.308594 11.847656 -8.84375 C 11.335938 -8.375 10.820312 -7.949219 10.261719 -7.554688 C 9.667969 -7.117188 9.101562 -6.761719 8.53125 -6.449219 C 7.921875 -6.128906 7.417969 -5.945312 7.015625 -5.9375 C 6.375 -5.859375 5.984375 -6.050781 5.925781 -6.53125 C 5.871094 -6.972656 5.929688 -7.503906 6.171875 -8.144531 C 6.382812 -8.738281 6.640625 -9.296875 6.96875 -9.90625 C 7.261719 -10.507812 7.496094 -10.902344 7.625 -11.164062 L 13.960938 -22.9375 L 8.324219 -22.242188 L 0.429688 -8.003906 C -0.230469 -6.785156 -0.707031 -5.714844 -0.960938 -4.828125 C -1.210938 -3.90625 -1.324219 -3.164062 -1.25 -2.5625 C -1.210938 -1.917969 -1.023438 -1.375 -0.691406 -1.007812 C -0.363281 -0.644531 0.0742188 -0.375 0.574219 -0.273438 Z M 0.574219 -0.273438 "/></g></g></g><g fill="#ff914d" fill-opacity="1"><g transform="translate(91.195486, 48.614646)"><g><path d="M -2.515625 19.375 C -1.503906 19.007812 -0.488281 18.394531 0.535156 17.457031 C 1.554688 16.519531 2.554688 15.421875 3.523438 14.085938 C 4.5 12.789062 5.355469 11.507812 6.171875 10.230469 C 6.988281 8.953125 7.6875 7.730469 8.320312 6.597656 C 8.617188 6.074219 8.882812 5.59375 9.113281 5.160156 C 9.34375 4.726562 9.546875 4.378906 9.75 4.070312 C 10.382812 2.9375 11.042969 1.71875 11.699219 0.460938 C 12.359375 -0.753906 13.050781 -2.058594 13.777344 -3.40625 C 15.152344 -6.050781 16.453125 -8.644531 17.761719 -11.199219 C 19.074219 -13.710938 20.273438 -16.132812 21.417969 -18.382812 L 24.222656 -23.921875 L 18.589844 -23.226562 L 13.285156 -13.28125 C 13.085938 -12.933594 12.886719 -12.582031 12.640625 -12.269531 C 12.394531 -11.953125 12.148438 -11.640625 11.898438 -11.367188 C 11.328125 -10.726562 10.785156 -10.214844 10.191406 -9.777344 C 9.601562 -9.296875 8.992188 -8.980469 8.449219 -8.75 C 7.871094 -8.515625 7.355469 -8.414062 6.863281 -8.472656 C 6.375 -8.492188 6.054688 -8.777344 5.824219 -9.320312 C 5.714844 -9.546875 5.671875 -9.90625 5.691406 -10.398438 C 5.714844 -10.886719 5.8125 -11.386719 5.945312 -11.96875 C 6.074219 -12.554688 6.246094 -13.140625 6.492188 -13.78125 C 6.742188 -14.378906 6.992188 -14.980469 7.328125 -15.546875 C 7.921875 -16.636719 8.542969 -17.523438 9.183594 -18.25 C 9.824219 -18.980469 10.488281 -19.507812 11.128906 -19.910156 C 11.734375 -20.269531 12.316406 -20.464844 12.84375 -20.488281 C 13.371094 -20.472656 13.691406 -20.1875 13.769531 -19.546875 C 13.851562 -18.867188 13.492188 -17.851562 12.679688 -16.53125 C 13.558594 -16.640625 14.261719 -16.890625 14.78125 -17.277344 C 15.300781 -17.667969 15.65625 -18.078125 15.914062 -18.59375 C 16.140625 -19.070312 16.242188 -19.570312 16.183594 -20.046875 C 16.121094 -20.527344 15.984375 -20.996094 15.769531 -21.417969 C 15.519531 -21.792969 15.195312 -22.117188 14.796875 -22.390625 C 14.363281 -22.621094 13.902344 -22.726562 13.417969 -22.707031 C 12.054688 -22.582031 10.691406 -22.128906 9.402344 -21.402344 C 8.113281 -20.675781 6.890625 -19.753906 5.800781 -18.726562 C 4.675781 -17.652344 3.679688 -16.515625 2.8125 -15.3125 C 1.90625 -14.109375 1.238281 -12.96875 0.714844 -11.933594 C -0.0351562 -10.460938 -0.625 -9.007812 -1.015625 -7.582031 C -1.449219 -6.148438 -1.574219 -4.875 -1.4375 -3.757812 C -1.289062 -2.558594 -1.015625 -1.660156 -0.582031 -1.105469 C -0.1875 -0.542969 0.339844 -0.203125 0.917969 -0.113281 C 1.503906 0.015625 2.140625 -0.0625 2.835938 -0.351562 C 3.535156 -0.597656 4.253906 -1.011719 5 -1.550781 C 5.710938 -2.042969 6.40625 -2.65625 7.125 -3.394531 C 7.808594 -4.085938 8.449219 -4.816406 9.003906 -5.574219 L 9.136719 -5.507812 L 5.539062 1.179688 C 2.753906 2.257812 0.542969 3.421875 -1.160156 4.726562 C -2.941406 6.082031 -4.234375 7.417969 -5.09375 8.660156 C -5.992188 9.945312 -6.578125 11.113281 -6.894531 12.167969 C -7.246094 13.265625 -7.40625 14.257812 -7.371094 15.1875 C -7.339844 16.117188 -7.160156 16.90625 -6.792969 17.589844 C -6.664062 17.980469 -6.417969 18.316406 -6.140625 18.605469 C -5.859375 18.894531 -5.546875 19.140625 -5.195312 19.339844 C -4.847656 19.539062 -4.433594 19.609375 -3.984375 19.636719 C -3.535156 19.664062 -3.054688 19.601562 -2.515625 19.375 Z M -3.683594 13.515625 C -4.265625 13.425781 -4.621094 13.144531 -4.683594 12.664062 C -4.742188 12.1875 -4.6875 11.652344 -4.433594 11.054688 C -4.21875 10.5 -3.925781 9.933594 -3.589844 9.367188 C -3.253906 8.796875 -2.90625 8.308594 -2.589844 7.945312 C -1.585938 6.847656 -0.449219 5.894531 0.832031 5.089844 C 2.109375 4.28125 3.359375 3.558594 4.621094 2.917969 L 4.664062 2.953125 L 3.839844 4.472656 C 3.636719 4.824219 3.441406 5.210938 3.242188 5.5625 C 3.046875 5.949219 2.8125 6.34375 2.578125 6.738281 C 2.109375 7.566406 1.605469 8.402344 1.058594 9.238281 C 0.519531 10.117188 0.00390625 10.871094 -0.527344 11.503906 C -1.089844 12.179688 -1.675781 12.699219 -2.195312 13.089844 C -2.714844 13.476562 -3.226562 13.621094 -3.683594 13.515625 Z M -3.683594 13.515625 "/></g></g></g><g fill="#ff914d" fill-opacity="1"><g transform="translate(106.17568, 46.764466)"><g><path d="M 4.007812 -15.179688 L -3.914062 0.484375 L 1.597656 -0.199219 C 3.460938 -4.160156 5.003906 -7.433594 6.214844 -10.097656 C 7.429688 -12.761719 8.464844 -14.875 9.359375 -16.488281 C 10.222656 -18.054688 11.011719 -19.207031 11.738281 -19.90625 C 12.46875 -20.5625 13.230469 -20.941406 14.078125 -21.003906 C 14.605469 -20.988281 14.988281 -20.832031 15.199219 -20.453125 C 15.40625 -20.074219 15.382812 -19.625 15.046875 -19.054688 L 10.175781 -10.546875 C 9.90625 -10.105469 9.644531 -9.585938 9.308594 -9.019531 C 8.980469 -8.410156 8.730469 -7.8125 8.480469 -7.210938 C 8.191406 -6.570312 7.988281 -5.933594 7.863281 -5.3125 C 7.734375 -4.6875 7.726562 -4.117188 7.871094 -3.609375 C 7.976562 -3.054688 8.238281 -2.597656 8.6875 -2.25 C 9.140625 -1.859375 9.820312 -1.617188 10.722656 -1.527344 C 11.300781 -1.4375 11.941406 -1.515625 12.570312 -1.675781 C 13.199219 -1.832031 13.734375 -2.101562 14.25 -2.53125 C 14.769531 -2.917969 15.269531 -3.46875 15.800781 -4.101562 C 16.289062 -4.730469 16.808594 -5.441406 17.324219 -6.195312 C 17.804688 -6.902344 18.246094 -7.609375 18.679688 -8.351562 C 19.082031 -9.050781 19.488281 -9.707031 19.816406 -10.316406 C 19.59375 -10.167969 19.335938 -9.933594 19.085938 -9.660156 C 18.949219 -9.480469 18.84375 -9.34375 18.699219 -9.203125 C 18.550781 -9.066406 18.40625 -8.925781 18.300781 -8.789062 C 18.011719 -8.511719 17.722656 -8.230469 17.421875 -8.03125 C 17.121094 -7.832031 16.8125 -7.714844 16.492188 -7.675781 C 16.015625 -7.617188 15.746094 -7.824219 15.71875 -8.351562 C 15.664062 -8.789062 15.792969 -9.414062 16.09375 -10.261719 C 16.363281 -11.027344 16.742188 -11.882812 17.191406 -12.871094 C 17.640625 -13.820312 18.089844 -14.769531 18.542969 -15.714844 C 18.957031 -16.617188 19.34375 -17.4375 19.652344 -18.207031 C 19.96875 -18.933594 20.144531 -19.484375 20.179688 -19.851562 C 20.171875 -20.582031 20.101562 -21.140625 19.882812 -21.601562 C 19.664062 -22.058594 19.414062 -22.433594 19.058594 -22.714844 C 18.257812 -23.265625 17.414062 -23.527344 16.523438 -23.539062 C 15.628906 -23.550781 14.71875 -23.355469 13.878906 -22.925781 C 13 -22.496094 12.179688 -21.90625 11.386719 -21.117188 C 10.59375 -20.289062 9.933594 -19.398438 9.332031 -18.351562 C 9.515625 -19.507812 9.527344 -20.402344 9.324219 -21.066406 C 9.125 -21.691406 8.671875 -22.082031 7.960938 -22.238281 C 7.46875 -22.296875 6.871094 -22.183594 6.179688 -21.894531 C 5.445312 -21.601562 4.578125 -21.046875 3.621094 -20.28125 L 3.480469 -20.425781 C 4.238281 -19.546875 4.625 -18.703125 4.71875 -17.941406 C 4.730469 -17.539062 4.664062 -17.085938 4.554688 -16.664062 C 4.40625 -16.199219 4.226562 -15.691406 4.007812 -15.179688 Z M 4.007812 -15.179688 "/></g></g></g><g fill="#ff914d" fill-opacity="1"><g transform="translate(124.911006, 44.450495)"><g><path d="M 2.730469 -0.539062 C 3.71875 -0.417969 4.679688 -0.539062 5.648438 -0.902344 C 6.617188 -1.261719 7.570312 -1.746094 8.5 -2.429688 C 9.394531 -3.066406 10.234375 -3.820312 11.066406 -4.652344 C 11.894531 -5.484375 12.675781 -6.390625 13.367188 -7.371094 C 14.023438 -8.304688 14.632812 -9.269531 15.203125 -10.234375 C 15.734375 -11.191406 16.195312 -12.058594 16.574219 -12.917969 C 14.984375 -10.691406 13.480469 -9.085938 12.140625 -8.109375 C 10.800781 -7.132812 9.640625 -6.667969 8.703125 -6.710938 C 7.730469 -6.714844 7.101562 -7.203125 6.734375 -8.214844 C 6.371094 -9.183594 6.402344 -10.566406 6.832031 -12.324219 C 6.945312 -12.742188 7.054688 -13.160156 7.164062 -13.582031 C 7.28125 -13.960938 7.4375 -14.34375 7.589844 -14.726562 C 7.53125 -13.910156 7.71875 -13.363281 8.117188 -13.089844 C 8.476562 -12.808594 8.980469 -12.667969 9.582031 -12.742188 L 9.476562 -12.609375 C 10.605469 -12.667969 11.683594 -13.125 12.636719 -13.933594 C 13.597656 -14.699219 14.332031 -15.640625 14.929688 -16.730469 C 15.160156 -17.164062 15.371094 -17.757812 15.601562 -18.515625 C 15.832031 -19.273438 15.945312 -19.980469 15.9375 -20.707031 C 15.933594 -21.398438 15.742188 -21.980469 15.4375 -22.472656 C 15.097656 -22.914062 14.503906 -23.125 13.695312 -23.109375 C 12.332031 -22.980469 11.007812 -22.53125 9.796875 -21.816406 C 8.589844 -21.097656 7.4375 -20.226562 6.429688 -19.207031 C 5.382812 -18.148438 4.46875 -17.019531 3.644531 -15.824219 C 2.824219 -14.585938 2.191406 -13.453125 1.671875 -12.414062 C 0.917969 -10.941406 0.328125 -9.492188 -0.0625 -8.0625 C -0.496094 -6.632812 -0.621094 -5.359375 -0.441406 -4.246094 C -0.285156 -2.964844 0.113281 -2.042969 0.671875 -1.460938 C 1.230469 -0.882812 1.914062 -0.601562 2.730469 -0.539062 Z M 9.09375 -14.710938 C 8.574219 -14.648438 8.261719 -14.890625 8.160156 -15.367188 C 8.023438 -15.835938 8.269531 -16.476562 8.847656 -17.359375 C 9.625 -18.628906 10.445312 -19.542969 11.308594 -20.09375 C 12.136719 -20.601562 12.867188 -20.9375 13.457031 -21.089844 L 13.496094 -21.09375 C 14.375 -21.203125 14.738281 -20.882812 14.59375 -20.09375 C 14.484375 -19.675781 14.292969 -19.246094 14.027344 -18.769531 C 13.761719 -18.289062 13.417969 -17.800781 13.066406 -17.351562 C 12.367188 -16.453125 11.636719 -15.796875 10.917969 -15.382812 C 10.164062 -14.925781 9.582031 -14.691406 9.09375 -14.710938 Z M 9.09375 -14.710938 "/></g></g></g><g fill="#ff914d" fill-opacity="1"><g transform="translate(139.411822, 42.659521)"><g><path d="M 4.515625 -15.320312 L -3.410156 0.300781 L 2.101562 -0.382812 L 8.550781 -14.199219 C 9 -15.144531 9.65625 -16.078125 10.46875 -17.03125 C 10.683594 -17.261719 10.96875 -17.578125 11.367188 -17.992188 C 11.765625 -18.367188 12.199219 -18.785156 12.71875 -19.175781 C 13.199219 -19.558594 13.691406 -19.863281 14.179688 -20.164062 C 14.667969 -20.46875 15.132812 -20.648438 15.613281 -20.707031 C 16.058594 -20.722656 16.441406 -20.566406 16.722656 -20.277344 C 17.003906 -19.945312 17.195312 -19.402344 17.292969 -18.605469 C 17.34375 -18.203125 17.222656 -17.863281 16.980469 -17.511719 C 16.742188 -17.15625 16.445312 -16.917969 16.066406 -16.707031 C 15.6875 -16.5 15.261719 -16.324219 14.785156 -16.265625 C 14.304688 -16.207031 13.847656 -16.273438 13.421875 -16.460938 C 13.257812 -15.792969 13.203125 -15.257812 13.253906 -14.859375 C 13.300781 -14.460938 13.46875 -14.117188 13.695312 -13.902344 C 13.890625 -13.640625 14.15625 -13.46875 14.449219 -13.386719 C 14.742188 -13.300781 15.035156 -13.253906 15.351562 -13.292969 C 16.082031 -13.300781 16.707031 -13.5 17.296875 -13.980469 C 17.847656 -14.453125 18.300781 -15.035156 18.695312 -15.777344 C 19.058594 -16.46875 19.328125 -17.234375 19.46875 -18.0625 C 19.609375 -18.890625 19.636719 -19.664062 19.542969 -20.421875 C 19.414062 -21.136719 19.171875 -21.796875 18.816406 -22.359375 C 18.421875 -22.921875 17.890625 -23.300781 17.21875 -23.460938 C 16.554688 -23.582031 15.835938 -23.492188 15.144531 -23.207031 C 14.453125 -22.875 13.769531 -22.507812 13.140625 -22.023438 C 12.472656 -21.496094 11.855469 -20.933594 11.273438 -20.375 C 10.699219 -19.777344 10.234375 -19.273438 9.839844 -18.859375 C 9.925781 -19.800781 9.828125 -20.601562 9.582031 -21.261719 C 9.34375 -21.878906 8.890625 -22.269531 8.265625 -22.398438 C 7.773438 -22.457031 7.179688 -22.34375 6.484375 -22.054688 C 5.789062 -21.765625 4.960938 -21.257812 4.035156 -20.535156 C 4.417969 -20.054688 4.671875 -19.640625 4.882812 -19.261719 C 5.089844 -18.882812 5.179688 -18.488281 5.230469 -18.085938 C 5.238281 -17.683594 5.171875 -17.226562 5.0625 -16.808594 C 4.917969 -16.34375 4.738281 -15.835938 4.515625 -15.320312 Z M 3.988281 -20.570312 L 3.925781 -20.441406 L 4.035156 -20.535156 Z M 3.988281 -20.570312 "/></g></g></g><g fill="#ff914d" fill-opacity="1"><g transform="translate(156.868802, 40.503437)"><g><path d="M 8.171875 -1.820312 C 9.339844 -2.53125 10.242188 -3.457031 10.90625 -4.632812 C 11.539062 -5.765625 12 -6.957031 12.328125 -8.214844 C 12.621094 -9.46875 12.871094 -10.714844 13.039062 -11.992188 C 13.207031 -13.273438 13.332031 -14.546875 13.414062 -15.851562 C 13.421875 -16.460938 13.464844 -17.078125 13.515625 -17.652344 C 13.527344 -18.21875 13.578125 -18.792969 13.628906 -19.367188 L 13.714844 -19.335938 C 14.050781 -19.582031 14.480469 -20.039062 15.050781 -20.679688 C 15.621094 -21.316406 16.136719 -22.070312 16.605469 -22.859375 C 16.90625 -23.382812 17.167969 -23.902344 17.386719 -24.414062 C 17.605469 -24.929688 17.753906 -25.394531 17.777344 -25.84375 C 17.808594 -26.253906 17.71875 -26.648438 17.519531 -26.945312 C 17.320312 -27.246094 16.964844 -27.488281 16.460938 -27.628906 C 16.046875 -27.699219 15.613281 -27.601562 15.164062 -27.304688 C 14.714844 -27.003906 14.3125 -26.632812 13.894531 -26.09375 C 13.433594 -25.550781 13.023438 -24.929688 12.621094 -24.234375 C 12.222656 -23.535156 11.855469 -22.878906 11.578125 -22.195312 C 11.257812 -21.507812 10.976562 -20.824219 10.769531 -20.191406 C 10.5625 -19.558594 10.464844 -19.058594 10.433594 -18.648438 C 9.914062 -18.261719 9.339844 -17.984375 8.753906 -17.792969 C 8.132812 -17.554688 7.546875 -17.398438 6.949219 -17.285156 C 6.355469 -17.171875 5.796875 -17.101562 5.226562 -17.113281 C 4.660156 -17.125 4.128906 -17.140625 3.636719 -17.199219 C 3.855469 -16.742188 4.214844 -16.460938 4.683594 -16.273438 C 5.152344 -16.089844 5.6875 -16.035156 6.328125 -16.074219 C 6.9375 -16.066406 7.574219 -16.1875 8.273438 -16.433594 C 8.9375 -16.636719 9.632812 -16.925781 10.359375 -17.261719 C 10.257812 -15.464844 10.082031 -13.941406 9.820312 -12.773438 C 9.558594 -11.605469 9.234375 -10.632812 8.835938 -9.894531 C 8.382812 -8.984375 7.8125 -8.347656 7.132812 -7.9375 C 6.453125 -7.53125 5.824219 -7.371094 5.25 -7.421875 C 4.640625 -7.429688 4.171875 -7.613281 3.835938 -8.019531 C 3.507812 -8.382812 3.476562 -8.949219 3.714844 -9.664062 C 3.882812 -10.253906 4.234375 -10.703125 4.679688 -11.042969 C 5.125 -11.382812 5.570312 -11.394531 5.976562 -11.039062 C 6.183594 -11.351562 6.296875 -11.730469 6.246094 -12.167969 C 6.199219 -12.527344 6.035156 -12.875 5.792969 -13.207031 C 5.511719 -13.496094 5.164062 -13.699219 4.734375 -13.886719 C 4.308594 -14.039062 3.820312 -14.058594 3.339844 -14 C 2.265625 -13.828125 1.394531 -13.355469 0.675781 -12.578125 C -0.0390625 -11.796875 -0.574219 -10.878906 -0.933594 -9.863281 C -1.296875 -8.84375 -1.40625 -7.777344 -1.347656 -6.648438 C -1.328125 -5.515625 -1.078125 -4.449219 -0.640625 -3.53125 C -0.199219 -2.613281 0.421875 -1.835938 1.300781 -1.296875 C 2.144531 -0.710938 3.1875 -0.476562 4.46875 -0.59375 C 5.71875 -0.664062 6.960938 -1.101562 8.171875 -1.820312 Z M 13.765625 -20.886719 C 13.851562 -21.503906 13.9375 -22.125 14.109375 -22.710938 C 14.277344 -23.300781 14.488281 -23.894531 14.78125 -24.5 L 14.789062 -24.417969 C 14.914062 -24.71875 15.082031 -25.023438 15.25 -25.289062 C 15.382812 -25.546875 15.554688 -25.769531 15.726562 -26.035156 C 16.007812 -26.394531 16.265625 -26.589844 16.464844 -26.613281 C 16.636719 -26.554688 16.695312 -26.398438 16.726562 -26.160156 C 16.703125 -25.992188 16.679688 -25.871094 16.699219 -25.710938 C 16.679688 -25.542969 16.660156 -25.378906 16.640625 -25.214844 C 16.523438 -24.835938 16.441406 -24.5 16.324219 -24.164062 C 16.203125 -23.824219 16.113281 -23.566406 16.046875 -23.4375 C 15.550781 -22.527344 14.804688 -21.664062 13.765625 -20.886719 Z M 13.765625 -20.886719 "/></g></g></g><g fill="#ffde59" fill-opacity="1"><g transform="translate(16.070723, 57.352404)"><g><path d="M 21.84375 -2.777344 C 23.570312 -2.585938 25.238281 -2.875 26.859375 -3.558594 C 28.476562 -4.246094 29.972656 -5.285156 31.390625 -6.59375 C 32.769531 -7.902344 34 -9.433594 35.164062 -11.199219 C 36.285156 -12.957031 37.226562 -14.859375 37.988281 -16.902344 C 38.714844 -18.898438 39.230469 -20.949219 39.542969 -23.015625 C 39.855469 -25.082031 39.929688 -27.117188 39.726562 -29.082031 C 39.492188 -31 38.988281 -32.761719 38.21875 -34.410156 C 37.410156 -36.015625 36.265625 -37.414062 34.746094 -38.523438 C 33.230469 -39.636719 31.355469 -40.378906 29.152344 -40.796875 C 26.917969 -41.167969 24.285156 -41.125 21.183594 -40.621094 L 21.34375 -40.640625 C 19.4375 -40.324219 17.523438 -39.722656 15.683594 -38.847656 C 13.804688 -37.964844 12.15625 -36.871094 10.707031 -35.472656 C 9.257812 -34.078125 8.117188 -32.476562 7.285156 -30.671875 C 6.453125 -28.863281 6.164062 -26.921875 6.433594 -24.765625 C 6.605469 -23.367188 7.097656 -22.332031 7.945312 -21.707031 C 8.757812 -21.039062 9.730469 -20.710938 10.820312 -20.765625 C 11.875 -20.773438 12.921875 -21.144531 13.972656 -21.84375 C 15.023438 -22.542969 15.828125 -23.574219 16.429688 -24.945312 C 15.699219 -24.9375 15.125 -24.988281 14.65625 -25.171875 C 14.152344 -25.3125 13.757812 -25.550781 13.480469 -25.839844 C 13.160156 -26.125 12.914062 -26.457031 12.785156 -26.847656 C 12.617188 -27.234375 12.523438 -27.667969 12.464844 -28.148438 C 12.414062 -28.546875 12.398438 -28.992188 12.421875 -29.480469 C 12.441406 -29.96875 12.507812 -30.425781 12.613281 -30.882812 C 12.71875 -31.34375 12.824219 -31.800781 12.933594 -32.222656 C 13.042969 -32.640625 13.199219 -33.023438 13.320312 -33.363281 C 13.640625 -34.375 14.21875 -35.300781 15.007812 -36.128906 C 15.796875 -36.953125 16.71875 -37.71875 17.777344 -38.335938 C 18.839844 -38.914062 19.964844 -39.335938 21.222656 -39.652344 C 22.480469 -39.972656 23.765625 -40.089844 25.074219 -40.007812 C 27.199219 -39.863281 29.023438 -39.238281 30.453125 -38.15625 C 31.886719 -37.078125 32.988281 -35.710938 33.792969 -34.109375 C 34.5625 -32.457031 35.070312 -30.65625 35.277344 -28.652344 C 35.484375 -26.652344 35.445312 -24.660156 35.164062 -22.675781 C 34.886719 -20.980469 34.433594 -19.382812 33.765625 -17.921875 C 33.097656 -16.417969 32.28125 -15.140625 31.28125 -14.042969 C 30.285156 -12.90625 29.136719 -12.035156 27.914062 -11.4375 C 26.695312 -10.800781 25.386719 -10.558594 24.070312 -10.679688 C 23.09375 -10.722656 22.085938 -11.003906 21.046875 -11.523438 C 20.015625 -12.003906 19.027344 -12.773438 18.050781 -13.789062 L 18.375 -14.4375 C 18.832031 -15.347656 19.320312 -16.296875 19.8125 -17.25 C 20.261719 -18.199219 20.75 -19.191406 21.234375 -20.183594 C 21.6875 -21.132812 22.175781 -22.085938 22.710938 -23.003906 C 23.246094 -23.921875 23.785156 -24.839844 24.402344 -25.726562 C 25.292969 -27.054688 26.273438 -28.3125 27.34375 -29.5 C 28.421875 -30.644531 29.738281 -31.78125 31.257812 -32.941406 C 30.085938 -32.59375 28.976562 -32.050781 27.96875 -31.359375 C 26.957031 -30.667969 25.96875 -29.816406 24.949219 -28.878906 C 23.933594 -27.902344 22.925781 -26.84375 22.007812 -25.757812 C 21.085938 -24.667969 20.171875 -23.542969 19.257812 -22.414062 C 18.34375 -21.25 17.425781 -20.160156 16.496094 -19.152344 C 15.566406 -18.148438 14.625 -17.21875 13.671875 -16.410156 C 12.679688 -15.558594 11.707031 -14.910156 10.707031 -14.464844 C 9.710938 -13.976562 8.648438 -13.722656 7.507812 -13.746094 C 6.621094 -13.714844 5.914062 -13.871094 5.382812 -14.210938 C 4.816406 -14.546875 4.355469 -14.976562 4.003906 -15.542969 C 3.304688 -16.59375 2.976562 -17.929688 3.09375 -19.609375 C 2.308594 -19.066406 1.621094 -18.410156 1.03125 -17.609375 C 0.398438 -16.800781 -0.0976562 -15.886719 -0.503906 -14.90625 C -0.941406 -13.878906 -1.222656 -12.867188 -1.414062 -11.789062 C -1.605469 -10.710938 -1.644531 -9.695312 -1.601562 -8.683594 C -1.546875 -7.597656 -1.382812 -6.601562 -1.023438 -5.671875 C -0.707031 -4.738281 -0.199219 -3.910156 0.492188 -3.226562 C 1.152344 -2.496094 1.945312 -1.984375 2.964844 -1.625 C 3.980469 -1.261719 5.175781 -1.125 6.539062 -1.253906 C 7.582031 -1.34375 8.550781 -1.703125 9.53125 -2.3125 C 10.46875 -2.914062 11.390625 -3.679688 12.28125 -4.679688 C 13.136719 -5.636719 13.929688 -6.75 14.746094 -8.027344 C 15.527344 -9.257812 16.292969 -10.609375 17.054688 -12.003906 C 16.671875 -10.496094 16.550781 -9.183594 16.683594 -8.105469 C 16.78125 -6.980469 17.054688 -6.082031 17.554688 -5.332031 C 18.015625 -4.539062 18.621094 -3.921875 19.359375 -3.527344 C 20.0625 -3.085938 20.90625 -2.824219 21.84375 -2.777344 Z M 21.84375 -2.777344 "/></g></g></g><g fill="#ffde59" fill-opacity="1"><g transform="translate(54.180942, 52.64547)"><g><path d="M 2.730469 -0.539062 C 3.71875 -0.417969 4.679688 -0.539062 5.648438 -0.902344 C 6.617188 -1.261719 7.570312 -1.746094 8.5 -2.429688 C 9.394531 -3.066406 10.234375 -3.820312 11.066406 -4.652344 C 11.894531 -5.484375 12.675781 -6.390625 13.367188 -7.371094 C 14.023438 -8.304688 14.632812 -9.269531 15.203125 -10.234375 C 15.734375 -11.191406 16.195312 -12.058594 16.574219 -12.917969 C 14.984375 -10.691406 13.480469 -9.085938 12.140625 -8.109375 C 10.800781 -7.132812 9.640625 -6.667969 8.703125 -6.710938 C 7.730469 -6.714844 7.101562 -7.203125 6.734375 -8.214844 C 6.371094 -9.183594 6.402344 -10.566406 6.832031 -12.324219 C 6.945312 -12.742188 7.054688 -13.160156 7.164062 -13.582031 C 7.28125 -13.960938 7.4375 -14.34375 7.589844 -14.726562 C 7.53125 -13.910156 7.71875 -13.363281 8.117188 -13.089844 C 8.476562 -12.808594 8.980469 -12.667969 9.582031 -12.742188 L 9.476562 -12.609375 C 10.605469 -12.667969 11.683594 -13.125 12.636719 -13.933594 C 13.597656 -14.699219 14.332031 -15.640625 14.929688 -16.730469 C 15.160156 -17.164062 15.371094 -17.757812 15.601562 -18.515625 C 15.832031 -19.273438 15.945312 -19.980469 15.9375 -20.707031 C 15.933594 -21.398438 15.742188 -21.980469 15.4375 -22.472656 C 15.097656 -22.914062 14.503906 -23.125 13.695312 -23.109375 C 12.332031 -22.980469 11.007812 -22.53125 9.796875 -21.816406 C 8.589844 -21.097656 7.4375 -20.226562 6.429688 -19.207031 C 5.382812 -18.148438 4.46875 -17.019531 3.644531 -15.824219 C 2.824219 -14.585938 2.191406 -13.453125 1.671875 -12.414062 C 0.917969 -10.941406 0.328125 -9.492188 -0.0625 -8.0625 C -0.496094 -6.632812 -0.621094 -5.359375 -0.441406 -4.246094 C -0.285156 -2.964844 0.113281 -2.042969 0.671875 -1.460938 C 1.230469 -0.882812 1.914062 -0.601562 2.730469 -0.539062 Z M 9.09375 -14.710938 C 8.574219 -14.648438 8.261719 -14.890625 8.160156 -15.367188 C 8.023438 -15.835938 8.269531 -16.476562 8.847656 -17.359375 C 9.625 -18.628906 10.445312 -19.542969 11.308594 -20.09375 C 12.136719 -20.601562 12.867188 -20.9375 13.457031 -21.089844 L 13.496094 -21.09375 C 14.375 -21.203125 14.738281 -20.882812 14.59375 -20.09375 C 14.484375 -19.675781 14.292969 -19.246094 14.027344 -18.769531 C 13.761719 -18.289062 13.417969 -17.800781 13.066406 -17.351562 C 12.367188 -16.453125 11.636719 -15.796875 10.917969 -15.382812 C 10.164062 -14.925781 9.582031 -14.691406 9.09375 -14.710938 Z M 9.09375 -14.710938 "/></g></g></g><g fill="#ffde59" fill-opacity="1"><g transform="translate(68.681761, 50.854496)"><g><path d="M 8.171875 -1.820312 C 9.339844 -2.53125 10.242188 -3.457031 10.90625 -4.632812 C 11.539062 -5.765625 12 -6.957031 12.328125 -8.214844 C 12.621094 -9.46875 12.871094 -10.714844 13.039062 -11.992188 C 13.207031 -13.273438 13.332031 -14.546875 13.414062 -15.851562 C 13.421875 -16.460938 13.464844 -17.078125 13.515625 -17.652344 C 13.527344 -18.21875 13.578125 -18.792969 13.628906 -19.367188 L 13.714844 -19.335938 C 14.050781 -19.582031 14.480469 -20.039062 15.050781 -20.679688 C 15.621094 -21.316406 16.136719 -22.070312 16.605469 -22.859375 C 16.90625 -23.382812 17.167969 -23.902344 17.386719 -24.414062 C 17.605469 -24.929688 17.753906 -25.394531 17.777344 -25.84375 C 17.808594 -26.253906 17.71875 -26.648438 17.519531 -26.945312 C 17.320312 -27.246094 16.964844 -27.488281 16.460938 -27.628906 C 16.046875 -27.699219 15.613281 -27.601562 15.164062 -27.304688 C 14.714844 -27.003906 14.3125 -26.632812 13.894531 -26.09375 C 13.433594 -25.550781 13.023438 -24.929688 12.621094 -24.234375 C 12.222656 -23.535156 11.855469 -22.878906 11.578125 -22.195312 C 11.257812 -21.507812 10.976562 -20.824219 10.769531 -20.191406 C 10.5625 -19.558594 10.464844 -19.058594 10.433594 -18.648438 C 9.914062 -18.261719 9.339844 -17.984375 8.753906 -17.792969 C 8.132812 -17.554688 7.546875 -17.398438 6.949219 -17.285156 C 6.355469 -17.171875 5.796875 -17.101562 5.226562 -17.113281 C 4.660156 -17.125 4.128906 -17.140625 3.636719 -17.199219 C 3.855469 -16.742188 4.214844 -16.460938 4.683594 -16.273438 C 5.152344 -16.089844 5.6875 -16.035156 6.328125 -16.074219 C 6.9375 -16.066406 7.574219 -16.1875 8.273438 -16.433594 C 8.9375 -16.636719 9.632812 -16.925781 10.359375 -17.261719 C 10.257812 -15.464844 10.082031 -13.941406 9.820312 -12.773438 C 9.558594 -11.605469 9.234375 -10.632812 8.835938 -9.894531 C 8.382812 -8.984375 7.8125 -8.347656 7.132812 -7.9375 C 6.453125 -7.53125 5.824219 -7.371094 5.25 -7.421875 C 4.640625 -7.429688 4.171875 -7.613281 3.835938 -8.019531 C 3.507812 -8.382812 3.476562 -8.949219 3.714844 -9.664062 C 3.882812 -10.253906 4.234375 -10.703125 4.679688 -11.042969 C 5.125 -11.382812 5.570312 -11.394531 5.976562 -11.039062 C 6.183594 -11.351562 6.296875 -11.730469 6.246094 -12.167969 C 6.199219 -12.527344 6.035156 -12.875 5.792969 -13.207031 C 5.511719 -13.496094 5.164062 -13.699219 4.734375 -13.886719 C 4.308594 -14.039062 3.820312 -14.058594 3.339844 -14 C 2.265625 -13.828125 1.394531 -13.355469 0.675781 -12.578125 C -0.0390625 -11.796875 -0.574219 -10.878906 -0.933594 -9.863281 C -1.296875 -8.84375 -1.40625 -7.777344 -1.347656 -6.648438 C -1.328125 -5.515625 -1.078125 -4.449219 -0.640625 -3.53125 C -0.199219 -2.613281 0.421875 -1.835938 1.300781 -1.296875 C 2.144531 -0.710938 3.1875 -0.476562 4.46875 -0.59375 C 5.71875 -0.664062 6.960938 -1.101562 8.171875 -1.820312 Z M 13.765625 -20.886719 C 13.851562 -21.503906 13.9375 -22.125 14.109375 -22.710938 C 14.277344 -23.300781 14.488281 -23.894531 14.78125 -24.5 L 14.789062 -24.417969 C 14.914062 -24.71875 15.082031 -25.023438 15.25 -25.289062 C 15.382812 -25.546875 15.554688 -25.769531 15.726562 -26.035156 C 16.007812 -26.394531 16.265625 -26.589844 16.464844 -26.613281 C 16.636719 -26.554688 16.695312 -26.398438 16.726562 -26.160156 C 16.703125 -25.992188 16.679688 -25.871094 16.699219 -25.710938 C 16.679688 -25.542969 16.660156 -25.378906 16.640625 -25.214844 C 16.523438 -24.835938 16.441406 -24.5 16.324219 -24.164062 C 16.203125 -23.824219 16.113281 -23.566406 16.046875 -23.4375 C 15.550781 -22.527344 14.804688 -21.664062 13.765625 -20.886719 Z M 13.765625 -20.886719 "/></g></g></g><g fill="#ffde59" fill-opacity="1"><g transform="translate(81.424855, 49.280616)"><g><path d="M 11.558594 -24.628906 C 11.984375 -24.476562 12.5625 -24.710938 13.21875 -25.320312 C 13.507812 -25.597656 13.828125 -25.964844 14.097656 -26.402344 C 14.371094 -26.839844 14.640625 -27.28125 14.859375 -27.792969 C 15.082031 -28.308594 15.265625 -28.777344 15.40625 -29.28125 C 15.507812 -29.78125 15.613281 -30.238281 15.636719 -30.6875 C 15.65625 -31.542969 15.429688 -32.042969 15.007812 -32.191406 C 14.542969 -32.339844 14.003906 -32.109375 13.347656 -31.5 C 12.699219 -30.851562 12.152344 -30.015625 11.671875 -28.980469 L 11.667969 -29.023438 C 11.40625 -28.503906 11.226562 -27.996094 11.125 -27.496094 C 10.984375 -26.992188 10.917969 -26.535156 10.921875 -26.171875 C 10.894531 -25.761719 10.9375 -25.402344 11.050781 -25.132812 C 11.164062 -24.863281 11.308594 -24.679688 11.558594 -24.628906 Z M 0.574219 -0.273438 C 1.242188 -0.113281 2.046875 -0.171875 3.066406 -0.460938 C 4.085938 -0.746094 5.148438 -1.324219 6.304688 -2.15625 C 7.425781 -2.945312 8.59375 -3.980469 9.730469 -5.296875 C 10.871094 -6.574219 11.96875 -8.171875 12.960938 -9.996094 C 12.675781 -9.679688 12.316406 -9.308594 11.847656 -8.84375 C 11.335938 -8.375 10.820312 -7.949219 10.261719 -7.554688 C 9.667969 -7.117188 9.101562 -6.761719 8.53125 -6.449219 C 7.921875 -6.128906 7.417969 -5.945312 7.015625 -5.9375 C 6.375 -5.859375 5.984375 -6.050781 5.925781 -6.53125 C 5.871094 -6.972656 5.929688 -7.503906 6.171875 -8.144531 C 6.382812 -8.738281 6.640625 -9.296875 6.96875 -9.90625 C 7.261719 -10.507812 7.496094 -10.902344 7.625 -11.164062 L 13.960938 -22.9375 L 8.324219 -22.242188 L 0.429688 -8.003906 C -0.230469 -6.785156 -0.707031 -5.714844 -0.960938 -4.828125 C -1.210938 -3.90625 -1.324219 -3.164062 -1.25 -2.5625 C -1.210938 -1.917969 -1.023438 -1.375 -0.691406 -1.007812 C -0.363281 -0.644531 0.0742188 -0.375 0.574219 -0.273438 Z M 0.574219 -0.273438 "/></g></g></g><g fill="#ffde59" fill-opacity="1"><g transform="translate(92.090644, 47.963301)"><g><path d="M -2.515625 19.375 C -1.503906 19.007812 -0.488281 18.394531 0.535156 17.457031 C 1.554688 16.519531 2.554688 15.421875 3.523438 14.085938 C 4.5 12.789062 5.355469 11.507812 6.171875 10.230469 C 6.988281 8.953125 7.6875 7.730469 8.320312 6.597656 C 8.617188 6.074219 8.882812 5.59375 9.113281 5.160156 C 9.34375 4.726562 9.546875 4.378906 9.75 4.070312 C 10.382812 2.9375 11.042969 1.71875 11.699219 0.460938 C 12.359375 -0.753906 13.050781 -2.058594 13.777344 -3.40625 C 15.152344 -6.050781 16.453125 -8.644531 17.761719 -11.199219 C 19.074219 -13.710938 20.273438 -16.132812 21.417969 -18.382812 L 24.222656 -23.921875 L 18.589844 -23.226562 L 13.285156 -13.28125 C 13.085938 -12.933594 12.886719 -12.582031 12.640625 -12.269531 C 12.394531 -11.953125 12.148438 -11.640625 11.898438 -11.367188 C 11.328125 -10.726562 10.785156 -10.214844 10.191406 -9.777344 C 9.601562 -9.296875 8.992188 -8.980469 8.449219 -8.75 C 7.871094 -8.515625 7.355469 -8.414062 6.863281 -8.472656 C 6.375 -8.492188 6.054688 -8.777344 5.824219 -9.320312 C 5.714844 -9.546875 5.671875 -9.90625 5.691406 -10.398438 C 5.714844 -10.886719 5.8125 -11.386719 5.945312 -11.96875 C 6.074219 -12.554688 6.246094 -13.140625 6.492188 -13.78125 C 6.742188 -14.378906 6.992188 -14.980469 7.328125 -15.546875 C 7.921875 -16.636719 8.542969 -17.523438 9.183594 -18.25 C 9.824219 -18.980469 10.488281 -19.507812 11.128906 -19.910156 C 11.734375 -20.269531 12.316406 -20.464844 12.84375 -20.488281 C 13.371094 -20.472656 13.691406 -20.1875 13.769531 -19.546875 C 13.851562 -18.867188 13.492188 -17.851562 12.679688 -16.53125 C 13.558594 -16.640625 14.261719 -16.890625 14.78125 -17.277344 C 15.300781 -17.667969 15.65625 -18.078125 15.914062 -18.59375 C 16.140625 -19.070312 16.242188 -19.570312 16.183594 -20.046875 C 16.121094 -20.527344 15.984375 -20.996094 15.769531 -21.417969 C 15.519531 -21.792969 15.195312 -22.117188 14.796875 -22.390625 C 14.363281 -22.621094 13.902344 -22.726562 13.417969 -22.707031 C 12.054688 -22.582031 10.691406 -22.128906 9.402344 -21.402344 C 8.113281 -20.675781 6.890625 -19.753906 5.800781 -18.726562 C 4.675781 -17.652344 3.679688 -16.515625 2.8125 -15.3125 C 1.90625 -14.109375 1.238281 -12.96875 0.714844 -11.933594 C -0.0351562 -10.460938 -0.625 -9.007812 -1.015625 -7.582031 C -1.449219 -6.148438 -1.574219 -4.875 -1.4375 -3.757812 C -1.289062 -2.558594 -1.015625 -1.660156 -0.582031 -1.105469 C -0.1875 -0.542969 0.339844 -0.203125 0.917969 -0.113281 C 1.503906 0.015625 2.140625 -0.0625 2.835938 -0.351562 C 3.535156 -0.597656 4.253906 -1.011719 5 -1.550781 C 5.710938 -2.042969 6.40625 -2.65625 7.125 -3.394531 C 7.808594 -4.085938 8.449219 -4.816406 9.003906 -5.574219 L 9.136719 -5.507812 L 5.539062 1.179688 C 2.753906 2.257812 0.542969 3.421875 -1.160156 4.726562 C -2.941406 6.082031 -4.234375 7.417969 -5.09375 8.660156 C -5.992188 9.945312 -6.578125 11.113281 -6.894531 12.167969 C -7.246094 13.265625 -7.40625 14.257812 -7.371094 15.1875 C -7.339844 16.117188 -7.160156 16.90625 -6.792969 17.589844 C -6.664062 17.980469 -6.417969 18.316406 -6.140625 18.605469 C -5.859375 18.894531 -5.546875 19.140625 -5.195312 19.339844 C -4.847656 19.539062 -4.433594 19.609375 -3.984375 19.636719 C -3.535156 19.664062 -3.054688 19.601562 -2.515625 19.375 Z M -3.683594 13.515625 C -4.265625 13.425781 -4.621094 13.144531 -4.683594 12.664062 C -4.742188 12.1875 -4.6875 11.652344 -4.433594 11.054688 C -4.21875 10.5 -3.925781 9.933594 -3.589844 9.367188 C -3.253906 8.796875 -2.90625 8.308594 -2.589844 7.945312 C -1.585938 6.847656 -0.449219 5.894531 0.832031 5.089844 C 2.109375 4.28125 3.359375 3.558594 4.621094 2.917969 L 4.664062 2.953125 L 3.839844 4.472656 C 3.636719 4.824219 3.441406 5.210938 3.242188 5.5625 C 3.046875 5.949219 2.8125 6.34375 2.578125 6.738281 C 2.109375 7.566406 1.605469 8.402344 1.058594 9.238281 C 0.519531 10.117188 0.00390625 10.871094 -0.527344 11.503906 C -1.089844 12.179688 -1.675781 12.699219 -2.195312 13.089844 C -2.714844 13.476562 -3.226562 13.621094 -3.683594 13.515625 Z M -3.683594 13.515625 "/></g></g></g><g fill="#ffde59" fill-opacity="1"><g transform="translate(107.070838, 46.113121)"><g><path d="M 4.007812 -15.179688 L -3.914062 0.484375 L 1.597656 -0.199219 C 3.460938 -4.160156 5.003906 -7.433594 6.214844 -10.097656 C 7.429688 -12.761719 8.464844 -14.875 9.359375 -16.488281 C 10.222656 -18.054688 11.011719 -19.207031 11.738281 -19.90625 C 12.46875 -20.5625 13.230469 -20.941406 14.078125 -21.003906 C 14.605469 -20.988281 14.988281 -20.832031 15.199219 -20.453125 C 15.40625 -20.074219 15.382812 -19.625 15.046875 -19.054688 L 10.175781 -10.546875 C 9.90625 -10.105469 9.644531 -9.585938 9.308594 -9.019531 C 8.980469 -8.410156 8.730469 -7.8125 8.480469 -7.210938 C 8.191406 -6.570312 7.988281 -5.933594 7.863281 -5.3125 C 7.734375 -4.6875 7.726562 -4.117188 7.871094 -3.609375 C 7.976562 -3.054688 8.238281 -2.597656 8.6875 -2.25 C 9.140625 -1.859375 9.820312 -1.617188 10.722656 -1.527344 C 11.300781 -1.4375 11.941406 -1.515625 12.570312 -1.675781 C 13.199219 -1.832031 13.734375 -2.101562 14.25 -2.53125 C 14.769531 -2.917969 15.269531 -3.46875 15.800781 -4.101562 C 16.289062 -4.730469 16.808594 -5.441406 17.324219 -6.195312 C 17.804688 -6.902344 18.246094 -7.609375 18.679688 -8.351562 C 19.082031 -9.050781 19.488281 -9.707031 19.816406 -10.316406 C 19.59375 -10.167969 19.335938 -9.933594 19.085938 -9.660156 C 18.949219 -9.480469 18.84375 -9.34375 18.699219 -9.203125 C 18.550781 -9.066406 18.40625 -8.925781 18.300781 -8.789062 C 18.011719 -8.511719 17.722656 -8.230469 17.421875 -8.03125 C 17.121094 -7.832031 16.8125 -7.714844 16.492188 -7.675781 C 16.015625 -7.617188 15.746094 -7.824219 15.71875 -8.351562 C 15.664062 -8.789062 15.792969 -9.414062 16.09375 -10.261719 C 16.363281 -11.027344 16.742188 -11.882812 17.191406 -12.871094 C 17.640625 -13.820312 18.089844 -14.769531 18.542969 -15.714844 C 18.957031 -16.617188 19.34375 -17.4375 19.652344 -18.207031 C 19.96875 -18.933594 20.144531 -19.484375 20.179688 -19.851562 C 20.171875 -20.582031 20.101562 -21.140625 19.882812 -21.601562 C 19.664062 -22.058594 19.414062 -22.433594 19.058594 -22.714844 C 18.257812 -23.265625 17.414062 -23.527344 16.523438 -23.539062 C 15.628906 -23.550781 14.71875 -23.355469 13.878906 -22.925781 C 13 -22.496094 12.179688 -21.90625 11.386719 -21.117188 C 10.59375 -20.289062 9.933594 -19.398438 9.332031 -18.351562 C 9.515625 -19.507812 9.527344 -20.402344 9.324219 -21.066406 C 9.125 -21.691406 8.671875 -22.082031 7.960938 -22.238281 C 7.46875 -22.296875 6.871094 -22.183594 6.179688 -21.894531 C 5.445312 -21.601562 4.578125 -21.046875 3.621094 -20.28125 L 3.480469 -20.425781 C 4.238281 -19.546875 4.625 -18.703125 4.71875 -17.941406 C 4.730469 -17.539062 4.664062 -17.085938 4.554688 -16.664062 C 4.40625 -16.199219 4.226562 -15.691406 4.007812 -15.179688 Z M 4.007812 -15.179688 "/></g></g></g><g fill="#ffde59" fill-opacity="1"><g transform="translate(125.806165, 43.799149)"><g><path d="M 2.730469 -0.539062 C 3.71875 -0.417969 4.679688 -0.539062 5.648438 -0.902344 C 6.617188 -1.261719 7.570312 -1.746094 8.5 -2.429688 C 9.394531 -3.066406 10.234375 -3.820312 11.066406 -4.652344 C 11.894531 -5.484375 12.675781 -6.390625 13.367188 -7.371094 C 14.023438 -8.304688 14.632812 -9.269531 15.203125 -10.234375 C 15.734375 -11.191406 16.195312 -12.058594 16.574219 -12.917969 C 14.984375 -10.691406 13.480469 -9.085938 12.140625 -8.109375 C 10.800781 -7.132812 9.640625 -6.667969 8.703125 -6.710938 C 7.730469 -6.714844 7.101562 -7.203125 6.734375 -8.214844 C 6.371094 -9.183594 6.402344 -10.566406 6.832031 -12.324219 C 6.945312 -12.742188 7.054688 -13.160156 7.164062 -13.582031 C 7.28125 -13.960938 7.4375 -14.34375 7.589844 -14.726562 C 7.53125 -13.910156 7.71875 -13.363281 8.117188 -13.089844 C 8.476562 -12.808594 8.980469 -12.667969 9.582031 -12.742188 L 9.476562 -12.609375 C 10.605469 -12.667969 11.683594 -13.125 12.636719 -13.933594 C 13.597656 -14.699219 14.332031 -15.640625 14.929688 -16.730469 C 15.160156 -17.164062 15.371094 -17.757812 15.601562 -18.515625 C 15.832031 -19.273438 15.945312 -19.980469 15.9375 -20.707031 C 15.933594 -21.398438 15.742188 -21.980469 15.4375 -22.472656 C 15.097656 -22.914062 14.503906 -23.125 13.695312 -23.109375 C 12.332031 -22.980469 11.007812 -22.53125 9.796875 -21.816406 C 8.589844 -21.097656 7.4375 -20.226562 6.429688 -19.207031 C 5.382812 -18.148438 4.46875 -17.019531 3.644531 -15.824219 C 2.824219 -14.585938 2.191406 -13.453125 1.671875 -12.414062 C 0.917969 -10.941406 0.328125 -9.492188 -0.0625 -8.0625 C -0.496094 -6.632812 -0.621094 -5.359375 -0.441406 -4.246094 C -0.285156 -2.964844 0.113281 -2.042969 0.671875 -1.460938 C 1.230469 -0.882812 1.914062 -0.601562 2.730469 -0.539062 Z M 9.09375 -14.710938 C 8.574219 -14.648438 8.261719 -14.890625 8.160156 -15.367188 C 8.023438 -15.835938 8.269531 -16.476562 8.847656 -17.359375 C 9.625 -18.628906 10.445312 -19.542969 11.308594 -20.09375 C 12.136719 -20.601562 12.867188 -20.9375 13.457031 -21.089844 L 13.496094 -21.09375 C 14.375 -21.203125 14.738281 -20.882812 14.59375 -20.09375 C 14.484375 -19.675781 14.292969 -19.246094 14.027344 -18.769531 C 13.761719 -18.289062 13.417969 -17.800781 13.066406 -17.351562 C 12.367188 -16.453125 11.636719 -15.796875 10.917969 -15.382812 C 10.164062 -14.925781 9.582031 -14.691406 9.09375 -14.710938 Z M 9.09375 -14.710938 "/></g></g></g><g fill="#ffde59" fill-opacity="1"><g transform="translate(140.30698, 42.008176)"><g><path d="M 4.515625 -15.320312 L -3.410156 0.300781 L 2.101562 -0.382812 L 8.550781 -14.199219 C 9 -15.144531 9.65625 -16.078125 10.46875 -17.03125 C 10.683594 -17.261719 10.96875 -17.578125 11.367188 -17.992188 C 11.765625 -18.367188 12.199219 -18.785156 12.71875 -19.175781 C 13.199219 -19.558594 13.691406 -19.863281 14.179688 -20.164062 C 14.667969 -20.46875 15.132812 -20.648438 15.613281 -20.707031 C 16.058594 -20.722656 16.441406 -20.566406 16.722656 -20.277344 C 17.003906 -19.945312 17.195312 -19.402344 17.292969 -18.605469 C 17.34375 -18.203125 17.222656 -17.863281 16.980469 -17.511719 C 16.742188 -17.15625 16.445312 -16.917969 16.066406 -16.707031 C 15.6875 -16.5 15.261719 -16.324219 14.785156 -16.265625 C 14.304688 -16.207031 13.847656 -16.273438 13.421875 -16.460938 C 13.257812 -15.792969 13.203125 -15.257812 13.253906 -14.859375 C 13.300781 -14.460938 13.46875 -14.117188 13.695312 -13.902344 C 13.890625 -13.640625 14.15625 -13.46875 14.449219 -13.386719 C 14.742188 -13.300781 15.035156 -13.253906 15.351562 -13.292969 C 16.082031 -13.300781 16.707031 -13.5 17.296875 -13.980469 C 17.847656 -14.453125 18.300781 -15.035156 18.695312 -15.777344 C 19.058594 -16.46875 19.328125 -17.234375 19.46875 -18.0625 C 19.609375 -18.890625 19.636719 -19.664062 19.542969 -20.421875 C 19.414062 -21.136719 19.171875 -21.796875 18.816406 -22.359375 C 18.421875 -22.921875 17.890625 -23.300781 17.21875 -23.460938 C 16.554688 -23.582031 15.835938 -23.492188 15.144531 -23.207031 C 14.453125 -22.875 13.769531 -22.507812 13.140625 -22.023438 C 12.472656 -21.496094 11.855469 -20.933594 11.273438 -20.375 C 10.699219 -19.777344 10.234375 -19.273438 9.839844 -18.859375 C 9.925781 -19.800781 9.828125 -20.601562 9.582031 -21.261719 C 9.34375 -21.878906 8.890625 -22.269531 8.265625 -22.398438 C 7.773438 -22.457031 7.179688 -22.34375 6.484375 -22.054688 C 5.789062 -21.765625 4.960938 -21.257812 4.035156 -20.535156 C 4.417969 -20.054688 4.671875 -19.640625 4.882812 -19.261719 C 5.089844 -18.882812 5.179688 -18.488281 5.230469 -18.085938 C 5.238281 -17.683594 5.171875 -17.226562 5.0625 -16.808594 C 4.917969 -16.34375 4.738281 -15.835938 4.515625 -15.320312 Z M 3.988281 -20.570312 L 3.925781 -20.441406 L 4.035156 -20.535156 Z M 3.988281 -20.570312 "/></g></g></g><g fill="#ffde59" fill-opacity="1"><g transform="translate(157.76396, 39.852092)"><g><path d="M 8.171875 -1.820312 C 9.339844 -2.53125 10.242188 -3.457031 10.90625 -4.632812 C 11.539062 -5.765625 12 -6.957031 12.328125 -8.214844 C 12.621094 -9.46875 12.871094 -10.714844 13.039062 -11.992188 C 13.207031 -13.273438 13.332031 -14.546875 13.414062 -15.851562 C 13.421875 -16.460938 13.464844 -17.078125 13.515625 -17.652344 C 13.527344 -18.21875 13.578125 -18.792969 13.628906 -19.367188 L 13.714844 -19.335938 C 14.050781 -19.582031 14.480469 -20.039062 15.050781 -20.679688 C 15.621094 -21.316406 16.136719 -22.070312 16.605469 -22.859375 C 16.90625 -23.382812 17.167969 -23.902344 17.386719 -24.414062 C 17.605469 -24.929688 17.753906 -25.394531 17.777344 -25.84375 C 17.808594 -26.253906 17.71875 -26.648438 17.519531 -26.945312 C 17.320312 -27.246094 16.964844 -27.488281 16.460938 -27.628906 C 16.046875 -27.699219 15.613281 -27.601562 15.164062 -27.304688 C 14.714844 -27.003906 14.3125 -26.632812 13.894531 -26.09375 C 13.433594 -25.550781 13.023438 -24.929688 12.621094 -24.234375 C 12.222656 -23.535156 11.855469 -22.878906 11.578125 -22.195312 C 11.257812 -21.507812 10.976562 -20.824219 10.769531 -20.191406 C 10.5625 -19.558594 10.464844 -19.058594 10.433594 -18.648438 C 9.914062 -18.261719 9.339844 -17.984375 8.753906 -17.792969 C 8.132812 -17.554688 7.546875 -17.398438 6.949219 -17.285156 C 6.355469 -17.171875 5.796875 -17.101562 5.226562 -17.113281 C 4.660156 -17.125 4.128906 -17.140625 3.636719 -17.199219 C 3.855469 -16.742188 4.214844 -16.460938 4.683594 -16.273438 C 5.152344 -16.089844 5.6875 -16.035156 6.328125 -16.074219 C 6.9375 -16.066406 7.574219 -16.1875 8.273438 -16.433594 C 8.9375 -16.636719 9.632812 -16.925781 10.359375 -17.261719 C 10.257812 -15.464844 10.082031 -13.941406 9.820312 -12.773438 C 9.558594 -11.605469 9.234375 -10.632812 8.835938 -9.894531 C 8.382812 -8.984375 7.8125 -8.347656 7.132812 -7.9375 C 6.453125 -7.53125 5.824219 -7.371094 5.25 -7.421875 C 4.640625 -7.429688 4.171875 -7.613281 3.835938 -8.019531 C 3.507812 -8.382812 3.476562 -8.949219 3.714844 -9.664062 C 3.882812 -10.253906 4.234375 -10.703125 4.679688 -11.042969 C 5.125 -11.382812 5.570312 -11.394531 5.976562 -11.039062 C 6.183594 -11.351562 6.296875 -11.730469 6.246094 -12.167969 C 6.199219 -12.527344 6.035156 -12.875 5.792969 -13.207031 C 5.511719 -13.496094 5.164062 -13.699219 4.734375 -13.886719 C 4.308594 -14.039062 3.820312 -14.058594 3.339844 -14 C 2.265625 -13.828125 1.394531 -13.355469 0.675781 -12.578125 C -0.0390625 -11.796875 -0.574219 -10.878906 -0.933594 -9.863281 C -1.296875 -8.84375 -1.40625 -7.777344 -1.347656 -6.648438 C -1.328125 -5.515625 -1.078125 -4.449219 -0.640625 -3.53125 C -0.199219 -2.613281 0.421875 -1.835938 1.300781 -1.296875 C 2.144531 -0.710938 3.1875 -0.476562 4.46875 -0.59375 C 5.71875 -0.664062 6.960938 -1.101562 8.171875 -1.820312 Z M 13.765625 -20.886719 C 13.851562 -21.503906 13.9375 -22.125 14.109375 -22.710938 C 14.277344 -23.300781 14.488281 -23.894531 14.78125 -24.5 L 14.789062 -24.417969 C 14.914062 -24.71875 15.082031 -25.023438 15.25 -25.289062 C 15.382812 -25.546875 15.554688 -25.769531 15.726562 -26.035156 C 16.007812 -26.394531 16.265625 -26.589844 16.464844 -26.613281 C 16.636719 -26.554688 16.695312 -26.398438 16.726562 -26.160156 C 16.703125 -25.992188 16.679688 -25.871094 16.699219 -25.710938 C 16.679688 -25.542969 16.660156 -25.378906 16.640625 -25.214844 C 16.523438 -24.835938 16.441406 -24.5 16.324219 -24.164062 C 16.203125 -23.824219 16.113281 -23.566406 16.046875 -23.4375 C 15.550781 -22.527344 14.804688 -21.664062 13.765625 -20.886719 Z M 13.765625 -20.886719 "/></g></g></g></svg>